<svg width="19" height="19" viewBox="0 0 19 19" fill="none" xmlns="http://www.w3.org/2000/svg">
<g opacity="0.5">
<path d="M3.34668 5.84548C3.34668 5.43206 3.68182 5.09692 4.09524 5.09692H4.8438C5.25721 5.09692 5.59235 5.43206 5.59235 5.84548C5.59235 6.2589 5.25721 6.59404 4.8438 6.59404H4.09524C3.68182 6.59404 3.34668 6.2589 3.34668 5.84548ZM7.08947 5.84548C7.08947 5.43206 7.42461 5.09692 7.83803 5.09692H14.5751C14.9885 5.09692 15.3236 5.43206 15.3236 5.84548C15.3236 6.2589 14.9885 6.59404 14.5751 6.59404H7.83803C7.42461 6.59404 7.08947 6.2589 7.08947 5.84548ZM3.34668 9.58827C3.34668 9.17486 3.68182 8.83972 4.09524 8.83972H4.8438C5.25721 8.83972 5.59235 9.17486 5.59235 9.58827C5.59235 10.0017 5.25721 10.3368 4.8438 10.3368H4.09524C3.68182 10.3368 3.34668 10.0017 3.34668 9.58827ZM7.08947 9.58827C7.08947 9.17486 7.42461 8.83972 7.83803 8.83972H14.5751C14.9885 8.83972 15.3236 9.17486 15.3236 9.58827C15.3236 10.0017 14.9885 10.3368 14.5751 10.3368H7.83803C7.42461 10.3368 7.08947 10.0017 7.08947 9.58827ZM3.34668 13.3311C3.34668 12.9176 3.68182 12.5825 4.09524 12.5825H4.8438C5.25721 12.5825 5.59235 12.9176 5.59235 13.3311C5.59235 13.7445 5.25721 14.0796 4.8438 14.0796H4.09524C3.68182 14.0796 3.34668 13.7445 3.34668 13.3311ZM7.08947 13.3311C7.08947 12.9176 7.42461 12.5825 7.83803 12.5825H14.5751C14.9885 12.5825 15.3236 12.9176 15.3236 13.3311C15.3236 13.7445 14.9885 14.0796 14.5751 14.0796H7.83803C7.42461 14.0796 7.08947 13.7445 7.08947 13.3311Z" fill="#1C1D22"/>
</g>
</svg>
